PathFileType	4	(X/Y/Z)	 0.11m3min.trc
DataRate	CameraRate	NumFrames	NumMarkers	Units	OrigDataRate	OrigDataStartFrame	OrigNumFrames
200	200	10	35	m	200	126	1000
Frame#	Time	C7			LSH			RSH			MAN			RASI			LASI			HIPR			HIPL			RPSI			LPSI			COX			RTHI1			RTHI2			RTHI3			RTHI4			RSHA1			RSHA2			RSHA3			RSHA4			RHEEL			RMET5			RMET1			RTOE			LTHI1			LTHI2			LTHI3			LTHI4			LSHA1			LSHA2			LSHA3			LSHA4			LHEEL			LMET5			LMET1			LTOE			
		X1	Y1	Z1	X2	Y2	Z2	X3	Y3	Z3	X4	Y4	Z4	X5	Y5	Z5	X6	Y6	Z6	X7	Y7	Z7	X8	Y8	Z8	X9	Y9	Z9	X10	Y10	Z10	X11	Y11	Z11	X12	Y12	Z12	X13	Y13	Z13	X14	Y14	Z14	X15	Y15	Z15	X16	Y16	Z16	X17	Y17	Z17	X18	Y18	Z18	X19	Y19	Z19	X20	Y20	Z20	X21	Y21	Z21	X22	Y22	Z22	X23	Y23	Z23	X24	Y24	Z24	X25	Y25	Z25	X26	Y26	Z26	X27	Y27	Z27	X28	Y28	Z28	X29	Y29	Z29	X30	Y30	Z30	X31	Y31	Z31	X32	Y32	Z32	X33	Y33	Z33	X34	Y34	Z34	X35	Y35	Z35	
126	0.6300	-0.360755	1.424201	-0.574485	-0.287639	1.404872	-0.734843	-0.294632	1.405792	-0.403313	-0.242038	1.382907	-0.571626	-0.190642	0.995396	-0.491034	-0.205200	1.009271	-0.683357	-0.232841	1.038342	-0.440583	-0.256545	1.050370	-0.702306	-0.332292	1.028849	-0.502208	-0.339364	1.039529	-0.619125	-0.343226	1.033354	-0.561619	-0.273920	0.786201	-0.397050	-0.258503	0.728663	-0.393559	-0.195488	0.743344	-0.401750	-0.204267	0.803896	-0.407087	-0.324976	0.358375	-0.378001	-0.333806	0.316453	-0.380339	-0.273494	0.309774	-0.376596	-0.268180	0.350098	-0.378393	-0.380233	0.151529	-0.434921	-0.271262	0.037971	-0.370342	-0.231655	0.041466	-0.438807	-0.213333	0.027075	-0.428761	-0.286462	0.806219	-0.747938	-0.272092	0.746214	-0.752668	-0.208540	0.755487	-0.746609	-0.213899	0.815118	-0.741274	-0.362659	0.334435	-0.765090	-0.376237	0.296455	-0.760847	-0.314933	0.281761	-0.758790	-0.309385	0.325466	-0.764412	-0.430971	0.161759	-0.717430	-0.319471	0.043489	-0.769383	-0.288619	0.043100	-0.701760	-0.270526	0.026815	-0.710503	
127	0.6350	-0.361227	1.428848	-0.574232	-0.288330	1.410046	-0.734576	-0.294826	1.411016	-0.403419	-0.242551	1.388066	-0.571626	-0.190104	1.000136	-0.491460	-0.205163	1.014190	-0.683300	-0.231774	1.043435	-0.440881	-0.256222	1.055607	-0.702084	-0.331289	1.034351	-0.502063	-0.338870	1.044884	-0.618950	-0.342561	1.038820	-0.561429	-0.275165	0.791557	-0.397264	-0.260285	0.733886	-0.393411	-0.197071	0.748007	-0.401050	-0.205312	0.808612	-0.406584	-0.326066	0.362169	-0.377917	-0.334347	0.320206	-0.379814	-0.273975	0.314505	-0.375404	-0.269257	0.354884	-0.377443	-0.377476	0.155671	-0.433537	-0.270410	0.039798	-0.369787	-0.230470	0.043463	-0.437571	-0.212643	0.028023	-0.427667	-0.287820	0.811515	-0.747778	-0.273703	0.751481	-0.752942	-0.210035	0.760534	-0.747690	-0.215146	0.820145	-0.742002	-0.361996	0.338166	-0.765360	-0.375067	0.299996	-0.761108	-0.313565	0.286050	-0.759506	-0.308594	0.329847	-0.765066	-0.427545	0.165879	-0.717618	-0.317763	0.045953	-0.769615	-0.286522	0.045395	-0.702675	-0.268951	0.028057	-0.711426	
128	0.6400	-0.361706	1.433339	-0.574019	-0.288999	1.414930	-0.734329	-0.294952	1.415938	-0.403538	-0.243036	1.392956	-0.571611	-0.189630	1.004610	-0.491829	-0.205163	1.018811	-0.683257	-0.230825	1.048214	-0.441123	-0.255979	1.060516	-0.701885	-0.330400	1.039539	-0.501939	-0.338441	1.049947	-0.618800	-0.341992	1.043991	-0.561260	-0.276446	0.796589	-0.397478	-0.262069	0.738806	-0.393340	-0.198673	0.752416	-0.400453	-0.206417	0.813061	-0.406133	-0.327034	0.365906	-0.377676	-0.334782	0.323848	-0.379321	-0.274371	0.319048	-0.374316	-0.270197	0.359469	-0.376593	-0.374959	0.159717	-0.432190	-0.269531	0.041870	-0.369147	-0.229253	0.045710	-0.436172	-0.211879	0.029254	-0.426369	-0.289163	0.816423	-0.747622	-0.275249	0.756385	-0.753188	-0.211488	0.765262	-0.748682	-0.216395	0.824852	-0.742668	-0.361251	0.341743	-0.765539	-0.373883	0.303418	-0.761283	-0.312227	0.290140	-0.760095	-0.307757	0.333996	-0.765611	-0.424336	0.169802	-0.717612	-0.316078	0.048549	-0.769842	-0.284330	0.047874	-0.703635	-0.267261	0.029567	-0.712468	
129	0.6450	-0.362169	1.437648	-0.573820	-0.289652	1.419519	-0.734107	-0.295033	1.420564	-0.403662	-0.243480	1.397578	-0.571581	-0.189233	1.008815	-0.492136	-0.205193	1.023128	-0.683227	-0.230001	1.052685	-0.441311	-0.255816	1.065095	-0.701710	-0.329639	1.044410	-0.501844	-0.338080	1.054710	-0.618675	-0.341512	1.048846	-0.561109	-0.277736	0.801291	-0.397669	-0.263803	0.743414	-0.393301	-0.200254	0.756569	-0.399948	-0.207555	0.817245	-0.405749	-0.327867	0.369541	-0.377354	-0.335125	0.327386	-0.378828	-0.274686	0.323396	-0.373327	-0.270990	0.363852	-0.375796	-0.372716	0.163610	-0.430944	-0.268663	0.044176	-0.368434	-0.228042	0.048180	-0.434628	-0.211072	0.030788	-0.424854	-0.290453	0.820956	-0.747484	-0.276700	0.760913	-0.753400	-0.212864	0.769672	-0.749588	-0.217613	0.829240	-0.743269	-0.360454	0.345163	-0.765630	-0.372708	0.306729	-0.761377	-0.310928	0.294026	-0.760555	-0.306894	0.337927	-0.766038	-0.421362	0.173513	-0.717397	-0.314405	0.051282	-0.770074	-0.282054	0.050520	-0.704617	-0.265453	0.031379	-0.713609	
130	0.6500	-0.362557	1.441771	-0.573591	-0.290293	1.423803	-0.733902	-0.295085	1.424896	-0.403778	-0.243889	1.401938	-0.571542	-0.188915	1.012756	-0.492383	-0.205247	1.027145	-0.683212	-0.229313	1.056850	-0.441445	-0.255723	1.069345	-0.701559	-0.329023	1.048968	-0.501767	-0.337785	1.059171	-0.618567	-0.341120	1.053389	-0.560979	-0.279003	0.805653	-0.397821	-0.265456	0.747715	-0.393292	-0.201781	0.760477	-0.399548	-0.208702	0.821184	-0.405435	-0.328548	0.373090	-0.376931	-0.335383	0.330834	-0.378331	-0.274925	0.327529	-0.372442	-0.271643	0.368026	-0.375059	-0.370778	0.167320	-0.429849	-0.267840	0.046701	-0.367648	-0.226867	0.050841	-0.432961	-0.210252	0.032638	-0.423147	-0.291671	0.825112	-0.747361	-0.278024	0.765064	-0.753580	-0.214135	0.773760	-0.750396	-0.218785	0.833304	-0.743806	-0.359626	0.348427	-0.765628	-0.371563	0.309930	-0.761393	-0.309687	0.297726	-0.760890	-0.306028	0.341653	-0.766367	-0.418639	0.176981	-0.716972	-0.312721	0.054147	-0.770328	-0.279712	0.053330	-0.705597	-0.263508	0.033524	-0.714802	
131	0.6550	-0.362882	1.445708	-0.573361	-0.290932	1.427792	-0.733723	-0.295133	1.428930	-0.403869	-0.244259	1.406032	-0.571494	-0.188691	1.016433	-0.492567	-0.205319	1.030861	-0.683211	-0.228771	1.060719	-0.441527	-0.255682	1.073271	-0.701433	-0.328556	1.053229	-0.501718	-0.337555	1.063337	-0.618479	-0.340801	1.057634	-0.560877	-0.280219	0.809685	-0.397933	-0.266994	0.751702	-0.393308	-0.203220	0.764147	-0.399250	-0.209839	0.824889	-0.405191	-0.329088	0.376525	-0.376449	-0.335575	0.334172	-0.377830	-0.275111	0.331436	-0.371664	-0.272163	0.371974	-0.374395	-0.369173	0.170821	-0.428957	-0.267081	0.049438	-0.366788	-0.225756	0.053645	-0.431220	-0.209443	0.034802	-0.421288	-0.292797	0.828891	-0.747264	-0.279197	0.768847	-0.753732	-0.215277	0.777529	-0.751100	-0.219876	0.837056	-0.744272	-0.358812	0.351570	-0.765562	-0.370474	0.313018	-0.761318	-0.308528	0.301244	-0.761116	-0.305185	0.345179	-0.766602	-0.416171	0.180187	-0.716348	-0.311001	0.057134	-0.770622	-0.277304	0.056281	-0.706550	-0.261410	0.035991	-0.716009	
132	0.6600	-0.363174	1.449467	-0.573148	-0.291574	1.431486	-0.733568	-0.295240	1.432696	-0.403884	-0.244594	1.409878	-0.571442	-0.188560	1.019853	-0.492692	-0.205407	1.034282	-0.683219	-0.228363	1.064299	-0.441575	-0.255670	1.076885	-0.701334	-0.328238	1.057206	-0.501681	-0.337389	1.067213	-0.618417	-0.340563	1.061569	-0.560806	-0.281367	0.813400	-0.398044	-0.268390	0.755379	-0.393337	-0.204548	0.767594	-0.399042	-0.210941	0.828381	-0.405014	-0.329508	0.379814	-0.375966	-0.335726	0.337395	-0.377329	-0.275256	0.335097	-0.370999	-0.272574	0.375663	-0.373850	-0.367944	0.174095	-0.428266	-0.266404	0.052357	-0.365827	-0.224729	0.056557	-0.429451	-0.208667	0.037259	-0.419319	-0.293805	0.832316	-0.747205	-0.280197	0.772269	-0.753860	-0.216268	0.780993	-0.751694	-0.220867	0.840512	-0.744675	-0.358040	0.354567	-0.765403	-0.369467	0.315987	-0.761137	-0.307468	0.304593	-0.761248	-0.304391	0.348522	-0.766755	-0.413956	0.183111	-0.715543	-0.309217	0.060238	-0.770974	-0.274829	0.059364	-0.707472	-0.259145	0.038771	-0.717205	
133	0.6650	-0.363404	1.452996	-0.572919	-0.292208	1.434893	-0.733429	-0.295401	1.436206	-0.403827	-0.244900	1.413472	-0.571383	-0.188527	1.023009	-0.492762	-0.205507	1.037420	-0.683232	-0.228086	1.067599	-0.441600	-0.255668	1.080202	-0.701260	-0.328066	1.060891	-0.501667	-0.337288	1.070806	-0.618379	-0.340397	1.065215	-0.560768	-0.282420	0.816793	-0.398163	-0.269614	0.758758	-0.393365	-0.205735	0.770840	-0.398910	-0.212001	0.831655	-0.404903	-0.329828	0.382956	-0.375508	-0.335856	0.340480	-0.376852	-0.275370	0.338507	-0.370451	-0.272883	0.379088	-0.373378	-0.367082	0.177108	-0.427770	-0.265806	0.055446	-0.364744	-0.223796	0.059536	-0.427693	-0.207924	0.039956	-0.417320	-0.294680	0.835404	-0.747172	-0.281014	0.775355	-0.753966	-0.217090	0.784178	-0.752181	-0.221748	0.843683	-0.745016	-0.357330	0.357437	-0.765137	-0.368559	0.318837	-0.760832	-0.306515	0.307749	-0.761286	-0.303664	0.351680	-0.766827	-0.411987	0.185743	-0.714607	-0.307338	0.063435	-0.771384	-0.272286	0.062548	-0.708370	-0.256710	0.041805	-0.718367	
134	0.6700	-0.363583	1.456282	-0.572691	-0.292835	1.438030	-0.733307	-0.295596	1.439456	-0.403722	-0.245206	1.416834	-0.571316	-0.188592	1.025907	-0.492780	-0.205621	1.040281	-0.683243	-0.227937	1.070625	-0.441607	-0.255662	1.083236	-0.701204	-0.328027	1.064290	-0.501671	-0.337247	1.074127	-0.618367	-0.340313	1.068591	-0.560765	-0.283366	0.819876	-0.398288	-0.270665	0.761840	-0.393398	-0.206765	0.773892	-0.398847	-0.212994	0.834725	-0.404846	-0.330048	0.385948	-0.375017	-0.335969	0.343412	-0.376412	-0.275463	0.341652	-0.370030	-0.273115	0.382225	-0.373043	-0.366558	0.179861	-0.427444	-0.265260	0.058680	-0.363541	-0.222966	0.062538	-0.425996	-0.207211	0.042839	-0.415380	-0.295419	0.838174	-0.747164	-0.281644	0.778135	-0.754056	-0.217738	0.787096	-0.752556	-0.222506	0.846591	-0.745295	-0.356698	0.360175	-0.764757	-0.367753	0.321555	-0.760389	-0.305679	0.310713	-0.761246	-0.303020	0.354648	-0.766823	-0.410253	0.188082	-0.713589	-0.305355	0.066697	-0.771850	-0.269684	0.065807	-0.709243	-0.254113	0.045035	-0.719484	
135	0.6750	-0.363725	1.459320	-0.572470	-0.293450	1.440901	-0.733204	-0.295830	1.442443	-0.403592	-0.245487	1.419963	-0.571241	-0.188756	1.028546	-0.492745	-0.205751	1.042881	-0.683242	-0.227910	1.073387	-0.441600	-0.255645	1.086001	-0.701156	-0.328111	1.067412	-0.501689	-0.337264	1.077184	-0.618381	-0.340314	1.071697	-0.560796	-0.284189	0.822670	-0.398413	-0.271519	0.764638	-0.393420	-0.207628	0.776756	-0.398826	-0.213900	0.837583	-0.404829	-0.330196	0.388747	-0.374585	-0.336078	0.346167	-0.376040	-0.275541	0.344523	-0.369732	-0.273265	0.385087	-0.372774	-0.366346	0.182346	-0.427259	-0.264758	0.062025	-0.362221	-0.222245	0.065528	-0.424401	-0.206528	0.045842	-0.413536	-0.296011	0.840654	-0.747188	-0.282091	0.780642	-0.754133	-0.218212	0.789779	-0.752828	-0.223129	0.849257	-0.745514	-0.356157	0.362779	-0.764266	-0.367048	0.324134	-0.759804	-0.304956	0.313471	-0.761145	-0.302465	0.357411	-0.766747	-0.408720	0.190120	-0.712530	-0.303271	0.069997	-0.772362	-0.267030	0.069101	-0.710101	-0.251379	0.048393	-0.720566	
